<svg
  width="27"
  height="28"
  viewBox="0 0 27 28"
  fill="none"
  xmlns="http://www.w3.org/2000/svg"
>
  <path
    d="M7.27252 7.32776H7.28346M7.27252 20.4528H7.28346M5.08502 2.95276H22.585C23.7931 2.95276 24.7725 3.93214 24.7725 5.14026V9.51526C24.7725 10.7234 23.7931 11.7028 22.585 11.7028H5.08502C3.8769 11.7028 2.89752 10.7234 2.89752 9.51526V5.14026C2.89752 3.93214 3.8769 2.95276 5.08502 2.95276ZM5.08502 16.0778H22.585C23.7931 16.0778 24.7725 17.0571 24.7725 18.2653V22.6403C24.7725 23.8484 23.7931 24.8278 22.585 24.8278H5.08502C3.8769 24.8278 2.89752 23.8484 2.89752 22.6403V18.2653C2.89752 17.0571 3.8769 16.0778 5.08502 16.0778Z"
    stroke="#1873DE"
    stroke-width="2.1875"
    stroke-linecap="round"
    stroke-linejoin="round"
  />
</svg>
