<svg
  width="19"
  height="18"
  viewBox="0 0 19 18"
  fill="none"
  xmlns="http://www.w3.org/2000/svg"
>
  <g clip-path="url(#clip0_1_734)">
    <path
      d="M11.2766 7.43344L9.2597 10.4683L7.89699 9.57109M15.3337 9.57109C15.3337 13.2169 12.7816 15.0398 9.74824 16.0971C9.5894 16.151 9.41686 16.1484 9.2597 16.0898C6.21908 15.0398 3.66699 13.2169 3.66699 9.57109V4.46692C3.66699 4.27353 3.74382 4.08807 3.88056 3.95132C4.01731 3.81458 4.20277 3.73775 4.39616 3.73775C5.85449 3.73775 7.67741 2.86275 8.94616 1.75442C9.10063 1.62244 9.29714 1.54993 9.50032 1.54993C9.7035 1.54993 9.90001 1.62244 10.0545 1.75442C11.3305 2.87005 13.1462 3.73775 14.6045 3.73775C14.7979 3.73775 14.9833 3.81458 15.1201 3.95132C15.2568 4.08807 15.3337 4.27353 15.3337 4.46692V9.57109Z"
      stroke="#FFF8F7"
      stroke-width="1.46434"
      stroke-linecap="round"
      stroke-linejoin="round"
    />
  </g>
  <defs>
    <clipPath id="clip0_1_734">
      <rect
        width="17.5"
        height="17.5"
        fill="white"
        transform="translate(0.75 0.0899658)"
      />
    </clipPath>
  </defs>
</svg>
