<svg
  width="19"
  height="18"
  viewBox="0 0 19 18"
  fill="none"
  xmlns="http://www.w3.org/2000/svg"
>
  <g clip-path="url(#clip0_1_719)">
    <path
      d="M11.2358 6.82251L7.76354 10.5841M7.76354 6.82251L11.2358 10.5841M15.0552 9.45561C15.0552 13.2172 12.6246 15.098 9.73576 16.1888C9.58448 16.2444 9.42016 16.2417 9.27048 16.1813C6.37465 15.098 3.94409 13.2172 3.94409 9.45561V4.18941C3.94409 3.98988 4.01726 3.79853 4.14749 3.65744C4.27772 3.51635 4.45436 3.43709 4.63854 3.43709C6.02742 3.43709 7.76353 2.53431 8.97187 1.3908C9.11899 1.25463 9.30614 1.17981 9.49965 1.17981C9.69315 1.17981 9.8803 1.25463 10.0274 1.3908C11.2427 2.54184 12.9719 3.43709 14.3608 3.43709C14.5449 3.43709 14.7216 3.51635 14.8518 3.65744C14.982 3.79853 15.0552 3.98988 15.0552 4.18941V9.45561Z"
      stroke="#FFF8F7"
      stroke-width="1.46"
      stroke-linecap="round"
      stroke-linejoin="round"
    />
  </g>
  <defs>
    <clipPath id="clip0_1_719">
      <rect
        width="17.5"
        height="17.5"
        fill="white"
        transform="translate(0.75 0.0899658)"
      />
    </clipPath>
  </defs>
</svg>
